<?xml version="1.0" standalone="no"?><!DOCTYPE svg PUBLIC "-//W3C//DTD SVG 1.1//EN" "http://www.w3.org/Graphics/SVG/1.1/DTD/svg11.dtd"><svg t="1501684103267" class="icon" style="" viewBox="0 0 1024 1024" version="1.1" xmlns="http://www.w3.org/2000/svg" p-id="1275" xmlns:xlink="http://www.w3.org/1999/xlink" width="128" height="128"><defs><style type="text/css"></style></defs><path d="M513 449.2m-423.4 0a423.4 423.4 0 1 0 846.8 0 423.4 423.4 0 1 0-846.8 0Z" fill="#F2CF3D" p-id="1276"></path><path d="M513 882.5c-58.5 0-115.3-11.5-168.7-34.1-51.6-21.8-98-53.1-137.8-92.9-39.8-39.8-71-86.1-92.9-137.8C91 564.3 79.5 507.5 79.5 449S91 333.7 113.6 280.3c21.8-51.6 53.1-98 92.9-137.8 39.8-39.8 86.1-71 137.8-92.9C397.7 27.2 454.5 15.8 513 15.8s115.3 11.5 168.7 34.1c51.6 21.8 98 53.1 137.8 92.9 39.8 39.8 71 86.1 92.9 137.8 22.6 53.4 34.1 110.2 34.1 168.7S935 564.6 912.4 618c-21.8 51.6-53.1 98-92.9 137.8-39.8 39.8-86.1 71-137.8 92.9-53.4 22.4-110.2 33.8-168.7 33.8z m0-846.7c-55.8 0-109.9 10.9-160.9 32.5-49.2 20.8-93.4 50.6-131.4 88.6-38 38-67.8 82.2-88.6 131.4-21.6 51-32.5 105.1-32.5 160.9s10.9 109.9 32.5 160.9c20.8 49.2 50.6 93.4 88.6 131.4 38 38 82.2 67.8 131.4 88.6 51 21.6 105.1 32.5 160.9 32.5 55.8 0 109.9-10.9 160.9-32.5 49.2-20.8 93.4-50.6 131.4-88.6s67.8-82.2 88.6-131.4c21.6-51 32.5-105.1 32.5-160.9s-10.9-109.9-32.5-160.9c-20.8-49.2-50.6-93.4-88.6-131.4-38-38-82.2-67.8-131.4-88.6-51-21.6-105.1-32.5-160.9-32.5z" fill="#231815" p-id="1277"></path><path d="M513 415.2m-389.4 0a389.4 389.4 0 1 0 778.8 0 389.4 389.4 0 1 0-778.8 0Z" fill="#FFE20D" p-id="1278"></path><path d="M513 882.5c-58.5 0-115.3-11.5-168.7-34.1-51.6-21.8-98-53.1-137.8-92.9-39.8-39.8-71-86.1-92.9-137.8C91 564.3 79.5 507.5 79.5 449S91 333.7 113.6 280.3c21.8-51.6 53.1-98 92.9-137.8 39.8-39.8 86.1-71 137.8-92.9C397.7 27.2 454.5 15.8 513 15.8s115.3 11.5 168.7 34.1c51.6 21.8 98 53.1 137.8 92.9 39.8 39.8 71 86.1 92.9 137.8 22.6 53.4 34.1 110.2 34.1 168.7S935 564.6 912.4 618c-21.8 51.6-53.1 98-92.9 137.8-39.8 39.8-86.1 71-137.8 92.9-53.4 22.4-110.2 33.8-168.7 33.8z m0-846.7c-55.8 0-109.9 10.9-160.9 32.5-49.2 20.8-93.4 50.6-131.4 88.6-38 38-67.8 82.2-88.6 131.4-21.6 51-32.5 105.1-32.5 160.9s10.9 109.9 32.5 160.9c20.8 49.2 50.6 93.4 88.6 131.4 38 38 82.2 67.8 131.4 88.6 51 21.6 105.1 32.5 160.9 32.5 55.8 0 109.9-10.9 160.9-32.5 49.2-20.8 93.4-50.6 131.4-88.6s67.8-82.2 88.6-131.4c21.6-51 32.5-105.1 32.5-160.9s-10.9-109.9-32.5-160.9c-20.8-49.2-50.6-93.4-88.6-131.4-38-38-82.2-67.8-131.4-88.6-51-21.6-105.1-32.5-160.9-32.5z" fill="#231815" p-id="1279"></path><path d="M378.5 127.6a134.5 43.5 0 1 0 269 0 134.5 43.5 0 1 0-269 0Z" fill="#FFF0B3" p-id="1280"></path><path d="M230.9 554.2a50.1 31 0 1 0 100.2 0 50.1 31 0 1 0-100.2 0Z" fill="#FFA178" p-id="1281"></path><path d="M694.9 554.2a50.1 31 0 1 0 100.2 0 50.1 31 0 1 0-100.2 0Z" fill="#FFA178" p-id="1282"></path><path d="M179.2 966.9a330.6 33.8 0 1 0 661.2 0 330.6 33.8 0 1 0-661.2 0Z" fill="#E5E5E5" p-id="1283"></path><path d="M269.6 368c-4.5 0-8.5-3-9.7-7.5-1.4-5.4 1.9-10.8 7.2-12.2 17.6-4.5 36.2-12.1 53.7-22.1 17.5-10 33.6-22 46.5-34.8 3.9-3.9 10.2-3.9 14.1 0 3.9 3.9 3.9 10.2 0 14.1-14.1 14-31.6 27.2-50.7 38s-39.4 19.2-58.6 24.1c-0.8 0.3-1.7 0.4-2.5 0.4zM756.4 368c-0.8 0-1.7-0.1-2.5-0.3-19.3-4.9-39.6-13.3-58.6-24.1-19.1-10.8-36.6-24-50.7-38-3.9-3.9-3.9-10.2 0-14.1 3.9-3.9 10.2-3.9 14.1 0 12.9 12.8 28.9 24.8 46.5 34.8 17.6 10 36.1 17.6 53.7 22.1 5.4 1.4 8.6 6.8 7.2 12.2-1.2 4.4-5.2 7.4-9.7 7.4z" fill="#231815" p-id="1284"></path><path d="M230.6 438.2h100.8" fill="#FFFFFF" p-id="1285"></path><path d="M331.4 448.2H230.6c-5.5 0-10-4.5-10-10s4.5-10 10-10h100.8c5.5 0 10 4.5 10 10s-4.4 10-10 10z" fill="#231815" p-id="1286"></path><path d="M694.6 438.2h100.8" fill="#FFFFFF" p-id="1287"></path><path d="M795.4 448.2H694.6c-5.5 0-10-4.5-10-10s4.5-10 10-10h100.8c5.5 0 10 4.5 10 10s-4.5 10-10 10z" fill="#231815" p-id="1288"></path><path d="M482.3 657.7c-5.5 0-10-4.5-10-10s4.5-10 10-10c27.8 0 51.3-16.2 51.3-35.4s-23.5-35.4-51.3-35.4c-5.5 0-10-4.5-10-10s4.5-10 10-10c18.5 0 36 5.4 49.3 15.3 14.2 10.5 22 24.8 22 40.1s-7.8 29.6-22 40.1c-13.2 9.8-30.8 15.3-49.3 15.3z" fill="#231815" p-id="1289"></path><path d="M482.3 748.4c-5.5 0-10-4.5-10-10s4.5-10 10-10c27.8 0 51.3-16.2 51.3-35.4s-23.5-35.4-51.3-35.4c-5.5 0-10-4.5-10-10s4.5-10 10-10c18.5 0 36 5.4 49.3 15.3 14.2 10.5 22 24.8 22 40.1s-7.8 29.6-22 40.1c-13.2 9.9-30.8 15.3-49.3 15.3z" fill="#231815" p-id="1290"></path></svg>